<svg width="673" height="122" viewBox="0 0 673 122" fill="none" xmlns="http://www.w3.org/2000/svg">
<path d="M-0.00019535 97L31.1998 53.4L31.0998 69.9L0.899805 27H27.3998L44.9998 53L33.6998 53.1L50.8998 27H76.2998L46.0998 69V52.6L77.7998 97H50.7998L33.1998 69.8L44.0998 69.7L26.8998 97H-0.00019535ZM116.833 98.6C111.166 98.6 105.899 97.7 101.033 95.9C96.2326 94.1 92.066 91.5667 88.5326 88.3C84.9993 84.9667 82.2326 81.0667 80.2326 76.6C78.2993 72.1333 77.3326 67.2667 77.3326 62C77.3326 56.6667 78.2993 51.8 80.2326 47.4C82.2326 42.9333 84.9993 39.0667 88.5326 35.8C92.066 32.4667 96.2326 29.9 101.033 28.1C105.899 26.3 111.166 25.4 116.833 25.4C122.566 25.4 127.833 26.3 132.633 28.1C137.433 29.9 141.599 32.4667 145.133 35.8C148.666 39.0667 151.399 42.9333 153.333 47.4C155.333 51.8 156.333 56.6667 156.333 62C156.333 67.2667 155.333 72.1333 153.333 76.6C151.399 81.0667 148.666 84.9667 145.133 88.3C141.599 91.5667 137.433 94.1 132.633 95.9C127.833 97.7 122.566 98.6 116.833 98.6ZM116.833 79.5C119.033 79.5 121.066 79.1 122.933 78.3C124.866 77.5 126.533 76.3667 127.933 74.9C129.399 73.3667 130.533 71.5333 131.333 69.4C132.133 67.2 132.533 64.7333 132.533 62C132.533 59.2667 132.133 56.8333 131.333 54.7C130.533 52.5 129.399 50.6667 127.933 49.2C126.533 47.6667 124.866 46.5 122.933 45.7C121.066 44.9 119.033 44.5 116.833 44.5C114.633 44.5 112.566 44.9 110.633 45.7C108.766 46.5 107.099 47.6667 105.633 49.2C104.233 50.6667 103.133 52.5 102.333 54.7C101.533 56.8333 101.133 59.2667 101.133 62C101.133 64.7333 101.533 67.2 102.333 69.4C103.133 71.5333 104.233 73.3667 105.633 74.9C107.099 76.3667 108.766 77.5 110.633 78.3C112.566 79.1 114.633 79.5 116.833 79.5ZM164.898 97V27H184.298L219.898 69.6H210.898V27H233.898V97H214.498L178.898 54.4H187.898V97H164.898ZM245.269 97V27H268.869V97H245.269Z" fill="#70E2FF"/>
<path d="M290.2 97V27H338.2V33.4H297.6V97H290.2ZM296.8 67.3V60.9H333.8V67.3H296.8ZM383.202 97.6C377.935 97.6 373.035 96.7333 368.502 95C364.035 93.2 360.135 90.7 356.802 87.5C353.535 84.2333 350.969 80.4667 349.102 76.2C347.302 71.8667 346.402 67.1333 346.402 62C346.402 56.8667 347.302 52.1667 349.102 47.9C350.969 43.5667 353.535 39.8 356.802 36.6C360.135 33.3333 364.035 30.8333 368.502 29.1C372.969 27.3 377.869 26.4 383.202 26.4C388.469 26.4 393.335 27.3 397.802 29.1C402.269 30.8333 406.135 33.3 409.402 36.5C412.735 39.7 415.302 43.4667 417.102 47.8C418.969 52.1333 419.902 56.8667 419.902 62C419.902 67.1333 418.969 71.8667 417.102 76.2C415.302 80.5333 412.735 84.3 409.402 87.5C406.135 90.7 402.269 93.2 397.802 95C393.335 96.7333 388.469 97.6 383.202 97.6ZM383.202 91C387.402 91 391.269 90.3 394.802 88.9C398.402 87.4333 401.502 85.4 404.102 82.8C406.769 80.1333 408.835 77.0667 410.302 73.6C411.769 70.0667 412.502 66.2 412.502 62C412.502 57.8 411.769 53.9667 410.302 50.5C408.835 46.9667 406.769 43.9 404.102 41.3C401.502 38.6333 398.402 36.6 394.802 35.2C391.269 33.7333 387.402 33 383.202 33C379.002 33 375.102 33.7333 371.502 35.2C367.902 36.6 364.769 38.6333 362.102 41.3C359.502 43.9 357.435 46.9667 355.902 50.5C354.435 53.9667 353.702 57.8 353.702 62C353.702 66.1333 354.435 69.9667 355.902 73.5C357.435 77.0333 359.502 80.1333 362.102 82.8C364.769 85.4 367.902 87.4333 371.502 88.9C375.102 90.3 379.002 91 383.202 91ZM436.489 97V27H462.689C471.556 27 478.522 29.1333 483.589 33.4C488.722 37.6 491.289 43.4667 491.289 51C491.289 55.9333 490.122 60.2 487.789 63.8C485.522 67.3333 482.256 70.0667 477.989 72C473.722 73.8667 468.622 74.8 462.689 74.8H440.589L443.889 71.4V97H436.489ZM484.289 97L466.289 71.6H474.289L492.389 97H484.289ZM443.889 72L440.589 68.5H462.489C469.489 68.5 474.789 66.9667 478.389 63.9C482.056 60.8333 483.889 56.5333 483.889 51C483.889 45.4 482.056 41.0667 478.389 38C474.789 34.9333 469.489 33.4 462.489 33.4H440.589L443.889 29.9V72ZM536.954 97.6C528.021 97.6 520.988 95.0333 515.854 89.9C510.721 84.7667 508.154 77.1667 508.154 67.1V27H515.554V66.8C515.554 75.0667 517.421 81.1667 521.154 85.1C524.888 89.0333 530.154 91 536.954 91C543.821 91 549.121 89.0333 552.854 85.1C556.588 81.1667 558.454 75.0667 558.454 66.8V27H565.654V67.1C565.654 77.1667 563.088 84.7667 557.954 89.9C552.888 95.0333 545.888 97.6 536.954 97.6ZM587.954 97V27H594.054L626.054 81.6H622.854L654.554 27H660.654V97H653.554V38.1H655.254L626.054 88.1H622.554L593.154 38.1H595.054V97H587.954Z" fill="white"/>
</svg>
